<svg xmlns="http://www.w3.org/2000/svg" xmlns:xlink="http://www.w3.org/1999/xlink" width="500" zoomAndPan="magnify" viewBox="0 0 375 374.999991" height="500" preserveAspectRatio="xMidYMid meet" version="1.0"><defs><g/><clipPath id="id1"><path d="M 15.386719 13.375 L 370.136719 13.375 L 370.136719 368.875 L 15.386719 368.875 Z M 15.386719 13.375 " clip-rule="nonzero"/></clipPath><clipPath id="id2"><path d="M 148.320312 32.191406 L 259.320312 32.191406 L 259.320312 79 L 148.320312 79 Z M 148.320312 32.191406 " clip-rule="nonzero"/></clipPath><clipPath id="id3"><path d="M 177 76 L 231 76 L 231 129.691406 L 177 129.691406 Z M 177 76 " clip-rule="nonzero"/></clipPath></defs><rect x="-37.5" width="450" fill="#ffffff" y="-37.499999" height="449.999989" fill-opacity="1"/><rect x="-37.5" width="450" fill="#ffffff" y="-37.499999" height="449.999989" fill-opacity="1"/><rect x="-37.5" width="450" fill="#ffffff" y="-37.499999" height="449.999989" fill-opacity="1"/><rect x="-37.5" width="450" fill="#ffffff" y="-37.499999" height="449.999989" fill-opacity="1"/><g clip-path="url(#id1)"><path fill="#00c2cb" d="M 15.386719 13.375 L 370.136719 13.375 L 370.136719 368.875 L 15.386719 368.875 L 15.386719 13.375 " fill-opacity="1" fill-rule="nonzero"/></g><g fill="#ffffff" fill-opacity="1"><g transform="translate(16.723767, 219.793594)"><g><path d="M 45.574219 1.90625 C 71.226562 1.90625 87.972656 -16.214844 85.851562 -42.503906 L 38.367188 -42.503906 L 38.367188 -30.84375 L 66.242188 -30.84375 C 65.394531 -21.515625 57.023438 -14.839844 46.316406 -14.839844 C 33.28125 -14.839844 23.847656 -24.484375 23.847656 -37.839844 C 23.847656 -51.300781 32.964844 -60.519531 45.574219 -60.519531 C 54.160156 -60.519531 61.792969 -55.539062 63.59375 -48.542969 L 82.460938 -51.828125 C 79.28125 -66.5625 64.019531 -77.265625 45.574219 -77.265625 C 21.09375 -77.265625 3.390625 -61.367188 3.390625 -37.839844 C 3.390625 -14.414062 21.09375 1.90625 45.574219 1.90625 Z M 45.574219 1.90625 "/></g></g></g><g fill="#ffffff" fill-opacity="1"><g transform="translate(106.17464, 219.793594)"><g><path d="M 40.171875 1.589844 C 61.050781 1.589844 75.039062 -11.023438 75.039062 -31.480469 L 75.039062 -75.675781 L 54.585938 -75.675781 L 54.585938 -32.222656 C 54.585938 -21.726562 48.96875 -15.15625 40.171875 -15.15625 C 31.265625 -15.15625 25.753906 -21.621094 25.753906 -32.222656 L 25.753906 -75.675781 L 5.300781 -75.675781 L 5.300781 -31.480469 C 5.300781 -11.023438 19.289062 1.589844 40.171875 1.589844 Z M 40.171875 1.589844 "/></g></g></g><g fill="#ffffff" fill-opacity="1"><g transform="translate(186.40486, 219.793594)"><g><path d="M 5.933594 0 L 26.496094 0 L 26.496094 -75.675781 L 5.933594 -75.675781 Z M 5.933594 0 "/></g></g></g><g fill="#ffffff" fill-opacity="1"><g transform="translate(218.730103, 219.793594)"><g><path d="M 5.933594 0 L 36.355469 0 C 61.898438 0 78.855469 -14.839844 78.855469 -37.839844 C 78.855469 -60.839844 61.792969 -75.675781 36.355469 -75.675781 L 5.933594 -75.675781 Z M 25.753906 -15.261719 L 25.753906 -60.414062 L 36.355469 -60.414062 C 49.496094 -60.414062 58.402344 -51.722656 58.402344 -37.839844 C 58.402344 -23.953125 49.496094 -15.261719 36.355469 -15.261719 Z M 25.753906 -15.261719 "/></g></g></g><g fill="#ffffff" fill-opacity="1"><g transform="translate(300.974024, 219.793594)"><g><path d="M 5.933594 0 L 64.972656 0 L 64.972656 -16.003906 L 25.648438 -16.003906 L 25.648438 -31.796875 L 61.898438 -31.796875 L 61.898438 -44.832031 L 25.648438 -44.832031 L 25.648438 -59.671875 L 63.910156 -59.671875 L 63.910156 -75.675781 L 5.933594 -75.675781 Z M 5.933594 0 "/></g></g></g><g fill="#ffffff" fill-opacity="1"><g transform="translate(21.38783, 325.543587)"><g><path d="M 45.574219 1.90625 C 71.226562 1.90625 87.972656 -16.214844 85.851562 -42.503906 L 38.367188 -42.503906 L 38.367188 -30.84375 L 66.242188 -30.84375 C 65.394531 -21.515625 57.023438 -14.839844 46.316406 -14.839844 C 33.28125 -14.839844 23.847656 -24.484375 23.847656 -37.839844 C 23.847656 -51.300781 32.964844 -60.519531 45.574219 -60.519531 C 54.160156 -60.519531 61.792969 -55.539062 63.59375 -48.542969 L 82.460938 -51.828125 C 79.28125 -66.5625 64.019531 -77.265625 45.574219 -77.265625 C 21.09375 -77.265625 3.390625 -61.367188 3.390625 -37.839844 C 3.390625 -14.414062 21.09375 1.90625 45.574219 1.90625 Z M 45.574219 1.90625 "/></g></g></g><g fill="#ffffff" fill-opacity="1"><g transform="translate(110.838702, 325.543587)"><g><path d="M 0.847656 0 L 22.152344 0 L 26.179688 -12.613281 L 54.160156 -12.613281 L 58.1875 0 L 79.492188 0 L 55.328125 -75.675781 L 25.011719 -75.675781 Z M 30.101562 -27.132812 L 39.640625 -58.292969 L 40.59375 -58.292969 L 50.238281 -27.132812 Z M 30.101562 -27.132812 "/></g></g></g><g fill="#ffffff" fill-opacity="1"><g transform="translate(191.174905, 325.543587)"><g><path d="M 5.933594 0 L 25.648438 0 L 25.648438 -47.695312 L 26.601562 -47.695312 L 44.621094 0 L 60.414062 0 L 78.433594 -47.800781 L 79.386719 -47.800781 L 79.386719 0 L 99.101562 0 L 99.101562 -75.675781 L 71.859375 -75.675781 L 52.996094 -23.953125 L 52.042969 -23.953125 L 32.644531 -75.675781 L 5.933594 -75.675781 Z M 5.933594 0 "/></g></g></g><g fill="#ffffff" fill-opacity="1"><g transform="translate(296.311472, 325.543587)"><g><path d="M 5.933594 0 L 64.972656 0 L 64.972656 -16.003906 L 25.648438 -16.003906 L 25.648438 -31.796875 L 61.898438 -31.796875 L 61.898438 -44.832031 L 25.648438 -44.832031 L 25.648438 -59.671875 L 63.910156 -59.671875 L 63.910156 -75.675781 L 5.933594 -75.675781 Z M 5.933594 0 "/></g></g></g><g clip-path="url(#id2)"><path fill="#100f0d" d="M 171.304688 78.074219 L 236.335938 78.074219 C 249.011719 78.074219 259.289062 67.804688 259.289062 55.132812 C 259.289062 42.464844 249.011719 32.191406 236.335938 32.191406 C 227.074219 32.191406 219.09375 37.679688 215.464844 45.574219 L 192.175781 45.574219 C 188.546875 37.679688 180.566406 32.191406 171.304688 32.191406 C 158.628906 32.191406 148.351562 42.464844 148.351562 55.132812 C 148.351562 67.804688 158.628906 78.074219 171.304688 78.074219 " fill-opacity="1" fill-rule="nonzero"/></g><g clip-path="url(#id3)"><path fill="#100f0d" d="M 184.695312 106.75 L 222.945312 106.75 C 225.054688 106.75 226.773438 108.46875 226.773438 110.574219 C 226.773438 112.683594 225.054688 114.398438 222.945312 114.398438 L 203.820312 114.398438 C 202.765625 114.398438 201.90625 115.253906 201.90625 116.308594 L 201.90625 127.78125 C 201.90625 128.835938 202.765625 129.691406 203.820312 129.691406 C 204.875 129.691406 205.734375 128.835938 205.734375 127.78125 L 205.734375 118.222656 L 222.945312 118.222656 C 227.164062 118.222656 230.597656 114.792969 230.597656 110.574219 C 230.597656 106.359375 227.164062 102.929688 222.945312 102.929688 L 184.695312 102.929688 C 182.585938 102.929688 180.867188 101.210938 180.867188 99.105469 C 180.867188 96.996094 182.585938 95.28125 184.695312 95.28125 L 203.820312 95.28125 C 204.875 95.28125 205.734375 94.425781 205.734375 93.371094 L 205.734375 78.074219 C 205.734375 77.019531 204.875 76.164062 203.820312 76.164062 C 202.765625 76.164062 201.90625 77.019531 201.90625 78.074219 L 201.90625 91.457031 L 184.695312 91.457031 C 180.476562 91.457031 177.042969 94.886719 177.042969 99.105469 C 177.042969 103.320312 180.476562 106.75 184.695312 106.75 " fill-opacity="1" fill-rule="nonzero"/></g><path fill="#dee0e1" d="M 207.644531 53.222656 L 215.296875 53.222656 C 216.351562 53.222656 217.210938 54.078125 217.210938 55.132812 C 217.210938 56.191406 216.351562 57.046875 215.296875 57.046875 L 207.644531 57.046875 C 206.589844 57.046875 205.734375 56.191406 205.734375 55.132812 C 205.734375 54.078125 206.589844 53.222656 207.644531 53.222656 " fill-opacity="1" fill-rule="nonzero"/><path fill="#dee0e1" d="M 192.34375 53.222656 L 199.996094 53.222656 C 201.050781 53.222656 201.90625 54.078125 201.90625 55.132812 C 201.90625 56.191406 201.050781 57.046875 199.996094 57.046875 L 192.34375 57.046875 C 191.289062 57.046875 190.433594 56.191406 190.433594 55.132812 C 190.433594 54.078125 191.289062 53.222656 192.34375 53.222656 " fill-opacity="1" fill-rule="nonzero"/><path fill="#100f0d" d="M 192.34375 66.605469 L 215.296875 66.605469 C 221.636719 66.605469 226.773438 71.738281 226.773438 78.074219 L 180.867188 78.074219 C 180.867188 71.738281 186.007812 66.605469 192.34375 66.605469 " fill-opacity="1" fill-rule="nonzero"/><path fill="#dee0e1" d="M 228.683594 58.957031 L 232.511719 58.957031 L 232.511719 62.78125 C 232.511719 64.894531 234.222656 66.605469 236.335938 66.605469 C 238.449219 66.605469 240.160156 64.894531 240.160156 62.78125 L 240.160156 58.957031 L 243.988281 58.957031 C 246.097656 58.957031 247.8125 57.246094 247.8125 55.132812 C 247.8125 53.023438 246.097656 51.308594 243.988281 51.308594 L 240.160156 51.308594 L 240.160156 47.488281 C 240.160156 45.375 238.449219 43.664062 236.335938 43.664062 C 234.222656 43.664062 232.511719 45.375 232.511719 47.488281 L 232.511719 51.308594 L 228.683594 51.308594 C 226.574219 51.308594 224.859375 53.023438 224.859375 55.132812 C 224.859375 57.246094 226.574219 58.957031 228.683594 58.957031 " fill-opacity="1" fill-rule="nonzero"/><path fill="#dee0e1" d="M 167.480469 62.78125 C 167.480469 60.667969 169.191406 58.957031 171.304688 58.957031 C 173.417969 58.957031 175.128906 60.667969 175.128906 62.78125 C 175.128906 64.894531 173.417969 66.605469 171.304688 66.605469 C 169.191406 66.605469 167.480469 64.894531 167.480469 62.78125 " fill-opacity="1" fill-rule="nonzero"/><path fill="#dee0e1" d="M 167.480469 47.488281 C 167.480469 45.375 169.191406 43.664062 171.304688 43.664062 C 173.417969 43.664062 175.128906 45.375 175.128906 47.488281 C 175.128906 49.597656 173.417969 51.308594 171.304688 51.308594 C 169.191406 51.308594 167.480469 49.597656 167.480469 47.488281 " fill-opacity="1" fill-rule="nonzero"/><path fill="#dee0e1" d="M 159.828125 55.132812 C 159.828125 53.023438 161.542969 51.308594 163.65625 51.308594 C 165.765625 51.308594 167.480469 53.023438 167.480469 55.132812 C 167.480469 57.246094 165.765625 58.957031 163.65625 58.957031 C 161.542969 58.957031 159.828125 57.246094 159.828125 55.132812 " fill-opacity="1" fill-rule="nonzero"/><path fill="#dee0e1" d="M 175.128906 55.132812 C 175.128906 53.023438 176.84375 51.308594 178.957031 51.308594 C 181.070312 51.308594 182.78125 53.023438 182.78125 55.132812 C 182.78125 57.246094 181.070312 58.957031 178.957031 58.957031 C 176.84375 58.957031 175.128906 57.246094 175.128906 55.132812 " fill-opacity="1" fill-rule="nonzero"/></svg>